<svg width="286" height="73" viewBox="0 0 286 73" fill="none" xmlns="http://www.w3.org/2000/svg">
<path d="M40.7031 49.9844L18.25 40.75V36.0156L40.7031 26.7812V31.9375L23.3594 38.1719V38.5938L40.7031 44.8281V49.9844ZM60.5781 55.4688C56.3438 55.4688 53.0703 54.3594 50.7578 52.1406C48.4609 49.9062 47.3125 46.7031 47.3125 42.5312C47.3125 38.4688 48.3984 35.3125 50.5703 33.0625C52.7578 30.8125 55.875 29.6875 59.9219 29.6875C62.3438 29.6875 64.4141 30.1406 66.1328 31.0469C67.8672 31.9375 69.1016 33.2031 69.8359 34.8438L66.0156 37.7266C65.3125 36.5859 64.4141 35.7031 63.3203 35.0781C62.2266 34.4531 61.0312 34.1406 59.7344 34.1406C57.3906 34.1406 55.5703 34.8516 54.2734 36.2734C52.9766 37.6797 52.3281 39.6875 52.3281 42.2969C52.3281 45.125 53.0859 47.2891 54.6016 48.7891C56.1328 50.2734 58.3125 51.0156 61.1406 51.0156C62.2969 51.0156 63.4531 50.9609 64.6094 50.8516C65.7656 50.7422 66.8906 50.5938 67.9844 50.4062L68.5469 54.7656C67.2656 55.0469 65.9375 55.2344 64.5625 55.3281C63.2031 55.4219 61.875 55.4688 60.5781 55.4688ZM86.3125 55.4688C82.875 55.4688 80.2031 54.3438 78.2969 52.0938C76.3906 49.8438 75.4375 46.6719 75.4375 42.5781C75.4375 38.4688 76.3906 35.2969 78.2969 33.0625C80.2031 30.8125 82.875 29.6875 86.3125 29.6875C89.7656 29.6875 92.4375 30.8125 94.3281 33.0625C96.2344 35.2969 97.1875 38.4688 97.1875 42.5781C97.1875 46.6719 96.2344 49.8438 94.3281 52.0938C92.4375 54.3438 89.7656 55.4688 86.3125 55.4688ZM86.3125 51.0156C88.1406 51.0156 89.5469 50.2812 90.5312 48.8125C91.5312 47.3438 92.0312 45.2656 92.0312 42.5781C92.0312 39.875 91.5312 37.7969 90.5312 36.3438C89.5469 34.875 88.1406 34.1406 86.3125 34.1406C84.4844 34.1406 83.0703 34.875 82.0703 36.3438C81.0859 37.7969 80.5938 39.875 80.5938 42.5781C80.5938 45.2656 81.0859 47.3438 82.0703 48.8125C83.0703 50.2812 84.4844 51.0156 86.3125 51.0156ZM112.539 55.4688C109.289 55.4688 106.82 54.3984 105.133 52.2578C103.461 50.1172 102.625 46.9688 102.625 42.8125C102.625 38.5 103.461 35.2344 105.133 33.0156C106.82 30.7969 109.289 29.6875 112.539 29.6875C114.398 29.6875 115.906 30.125 117.062 31C118.234 31.875 118.922 33.0938 119.125 34.6562H121.047L119.594 41.7344C119.594 39.1719 119.086 37.2266 118.07 35.8984C117.07 34.5703 115.594 33.9062 113.641 33.9062C111.641 33.9062 110.125 34.6562 109.094 36.1562C108.062 37.6562 107.547 39.875 107.547 42.8125C107.547 45.5938 108.062 47.6953 109.094 49.1172C110.125 50.5391 111.641 51.25 113.641 51.25C115.594 51.25 117.07 50.5859 118.07 49.2578C119.086 47.9297 119.594 45.9844 119.594 43.4219L121.281 50.5H119.125C118.969 52.0625 118.305 53.2812 117.133 54.1562C115.977 55.0312 114.445 55.4688 112.539 55.4688ZM120.109 55.2344L119.594 50.3594V19.8438H124.562V55L120.109 55.2344Z" fill="#7BC93F"/>
<path d="M144.719 55.4688C140.484 55.4688 137.211 54.3594 134.898 52.1406C132.602 49.9062 131.453 46.7031 131.453 42.5312C131.453 38.4688 132.43 35.3125 134.383 33.0625C136.336 30.8125 139.094 29.6875 142.656 29.6875C146.016 29.6875 148.609 30.7031 150.438 32.7344C152.281 34.7656 153.203 37.7188 153.203 41.5938C153.203 42.7344 153.156 43.7969 153.062 44.7812H135.625V40.9844H148.703C148.703 38.75 148.172 37.0391 147.109 35.8516C146.047 34.6484 144.578 34.0469 142.703 34.0469C140.594 34.0469 138.953 34.7656 137.781 36.2031C136.625 37.6406 136.047 39.6719 136.047 42.2969C136.047 45.1719 136.844 47.3594 138.438 48.8594C140.047 50.3594 142.328 51.1094 145.281 51.1094C146.312 51.1094 147.328 51.0547 148.328 50.9453C149.328 50.8203 150.344 50.6562 151.375 50.4531L151.984 54.8125C150.516 55.0938 149.172 55.2734 147.953 55.3516C146.734 55.4297 145.656 55.4688 144.719 55.4688Z" fill="url(#paint0_linear_1_31)"/>
<path d="M173.078 55.4688C168.844 55.4688 165.57 54.3594 163.258 52.1406C160.961 49.9062 159.812 46.7031 159.812 42.5312C159.812 38.4688 160.898 35.3125 163.07 33.0625C165.258 30.8125 168.375 29.6875 172.422 29.6875C174.844 29.6875 176.914 30.1406 178.633 31.0469C180.367 31.9375 181.602 33.2031 182.336 34.8438L178.516 37.7266C177.812 36.5859 176.914 35.7031 175.82 35.0781C174.727 34.4531 173.531 34.1406 172.234 34.1406C169.891 34.1406 168.07 34.8516 166.773 36.2734C165.477 37.6797 164.828 39.6875 164.828 42.2969C164.828 45.125 165.586 47.2891 167.102 48.7891C168.633 50.2734 170.812 51.0156 173.641 51.0156C174.797 51.0156 175.953 50.9609 177.109 50.8516C178.266 50.7422 179.391 50.5938 180.484 50.4062L181.047 54.7656C179.766 55.0469 178.438 55.2344 177.062 55.3281C175.703 55.4219 174.375 55.4688 173.078 55.4688ZM203.969 55V38.8281C203.969 37.25 203.578 36.0391 202.797 35.1953C202.016 34.3359 200.922 33.9062 199.516 33.9062C195.609 33.9062 193.656 36.2812 193.656 41.0312L192.203 34.6562H194.125C194.266 32.9844 194.875 31.7422 195.953 30.9297C197.031 30.1016 198.609 29.6875 200.688 29.6875C203.312 29.6875 205.344 30.4844 206.781 32.0781C208.219 33.6719 208.938 35.9219 208.938 38.8281V55H203.969ZM188.688 55V19.8438H193.656V55H188.688ZM226.938 55.4688C223.5 55.4688 220.828 54.3438 218.922 52.0938C217.016 49.8438 216.062 46.6719 216.062 42.5781C216.062 38.4688 217.016 35.2969 218.922 33.0625C220.828 30.8125 223.5 29.6875 226.938 29.6875C230.391 29.6875 233.062 30.8125 234.953 33.0625C236.859 35.2969 237.812 38.4688 237.812 42.5781C237.812 46.6719 236.859 49.8438 234.953 52.0938C233.062 54.3438 230.391 55.4688 226.938 55.4688ZM226.938 51.0156C228.766 51.0156 230.172 50.2812 231.156 48.8125C232.156 47.3438 232.656 45.2656 232.656 42.5781C232.656 39.875 232.156 37.7969 231.156 36.3438C230.172 34.875 228.766 34.1406 226.938 34.1406C225.109 34.1406 223.695 34.875 222.695 36.3438C221.711 37.7969 221.219 39.875 221.219 42.5781C221.219 45.2656 221.711 47.3438 222.695 48.8125C223.695 50.2812 225.109 51.0156 226.938 51.0156ZM244.422 49.9844V44.8281L260.828 38.5938V38.1719L244.422 31.9375V26.7812L266.875 36.0156V40.75L244.422 49.9844Z" fill="#348EE1"/>
<defs>
<linearGradient id="paint0_linear_1_31" x1="137" y1="39.5" x2="150.5" y2="39.5" gradientUnits="userSpaceOnUse">
<stop stop-color="#7BC93F"/>
<stop offset="1" stop-color="#348EE1"/>
</linearGradient>
</defs>
</svg>
